<svg width="44" height="44" viewBox="0 0 44 44" fill="none" xmlns="http://www.w3.org/2000/svg">
<path d="M7.24199 34.8332L3.75866 22.5499C3.66699 22.1833 3.70519 21.7555 3.87324 21.2666C4.0413 20.7777 4.40033 20.4416 4.95033 20.2583L7.33366 19.4333V10.9999C7.33366 9.99158 7.69269 9.12839 8.41074 8.41033C9.1288 7.69228 9.99199 7.33325 11.0003 7.33325H16.5003V1.83325H27.5003V7.33325H33.0003C34.0087 7.33325 34.8719 7.69228 35.5899 8.41033C36.308 9.12839 36.667 9.99158 36.667 10.9999V19.4333L39.0503 20.2583C39.692 20.5027 40.0739 20.8617 40.1962 21.3353C40.3184 21.8089 40.3337 22.2138 40.242 22.5499L36.7587 34.8332C35.2309 34.8332 33.8406 34.4742 32.5878 33.7562C31.335 33.0381 30.2503 32.1749 29.3337 31.1666C28.417 32.1749 27.3323 33.0381 26.0795 33.7562C24.8267 34.4742 23.467 34.8332 22.0003 34.8332C20.5337 34.8332 19.1739 34.4742 17.9212 33.7562C16.6684 33.0381 15.5837 32.1749 14.667 31.1666C13.7503 32.1749 12.6656 33.0381 11.4128 33.7562C10.16 34.4742 8.76977 34.8332 7.24199 34.8332ZM3.66699 42.1666V38.4999H7.33366C8.61699 38.4999 9.88505 38.3013 11.1378 37.9041C12.3906 37.5069 13.567 36.911 14.667 36.1166C15.767 36.911 16.9434 37.4916 18.1962 37.8582C19.4489 38.2249 20.717 38.4082 22.0003 38.4082C23.2837 38.4082 24.5517 38.2249 25.8045 37.8582C27.0573 37.4916 28.2337 36.911 29.3337 36.1166C30.4337 36.911 31.61 37.5069 32.8628 37.9041C34.1156 38.3013 35.3837 38.4999 36.667 38.4999H40.3337V42.1666H36.667C35.3837 42.1666 34.1309 42.0138 32.9087 41.7082C31.6864 41.4027 30.4948 40.9444 29.3337 40.3332C28.1725 40.9444 26.9732 41.4027 25.7357 41.7082C24.4982 42.0138 23.2531 42.1666 22.0003 42.1666C20.7475 42.1666 19.5024 42.0138 18.2649 41.7082C17.0274 41.4027 15.8281 40.9444 14.667 40.3332C13.5059 40.9444 12.3142 41.4027 11.092 41.7082C9.86977 42.0138 8.61699 42.1666 7.33366 42.1666H3.66699ZM11.0003 18.2416L22.0003 14.6666L33.0003 18.2416V10.9999H11.0003V18.2416ZM22.0003 31.1666C23.4364 31.1666 24.651 30.6624 25.6441 29.6541C26.6371 28.6458 27.867 27.286 29.3337 25.5749C30.8003 27.2249 31.7934 28.3555 32.3128 28.9666C32.8323 29.5777 33.4587 30.0971 34.192 30.5249L36.2087 23.1916L22.0003 18.5166L7.70033 23.1916L9.80866 30.4333C10.542 30.0055 11.1684 29.5166 11.6878 28.9666C12.2073 28.4166 13.2003 27.286 14.667 25.5749C16.1948 27.3166 17.4399 28.6839 18.4024 29.677C19.3649 30.6701 20.5642 31.1666 22.0003 31.1666Z" fill="white"/>
</svg>
