<svg width="44" height="44" viewBox="0 0 44 44" fill="none" xmlns="http://www.w3.org/2000/svg">
<g clip-path="url(#clip0_295_96)">
<path d="M22 38.4999C20.7167 38.4999 19.6319 38.0569 18.7458 37.1708C17.8597 36.2846 17.4167 35.1999 17.4167 33.9166C17.4167 32.6333 17.8597 31.5485 18.7458 30.6624C19.6319 29.7763 20.7167 29.3333 22 29.3333C23.2833 29.3333 24.3681 29.7763 25.2542 30.6624C26.1403 31.5485 26.5833 32.6333 26.5833 33.9166C26.5833 35.1999 26.1403 36.2846 25.2542 37.1708C24.3681 38.0569 23.2833 38.4999 22 38.4999ZM11.6417 28.1416L7.79167 24.1999C9.59444 22.3971 11.7104 20.9687 14.1396 19.9145C16.5688 18.8603 19.1889 18.3333 22 18.3333C24.8111 18.3333 27.4313 18.868 29.8604 19.9374C32.2896 21.0069 34.4056 22.4583 36.2083 24.2916L32.3583 28.1416C31.0139 26.7971 29.4556 25.743 27.6833 24.9791C25.9111 24.2152 24.0167 23.8333 22 23.8333C19.9833 23.8333 18.0889 24.2152 16.3167 24.9791C14.5444 25.743 12.9861 26.7971 11.6417 28.1416ZM3.85 20.3499L0 16.4999C2.81111 13.6277 6.09583 11.3819 9.85417 9.76242C13.6125 8.14297 17.6611 7.33325 22 7.33325C26.3389 7.33325 30.3875 8.14297 34.1458 9.76242C37.9042 11.3819 41.1889 13.6277 44 16.4999L40.15 20.3499C37.7972 17.9971 35.0701 16.1562 31.9688 14.827C28.8674 13.4978 25.5444 12.8333 22 12.8333C18.4556 12.8333 15.1326 13.4978 12.0313 14.827C8.92986 16.1562 6.20278 17.9971 3.85 20.3499Z" fill="white"/>
</g>
<defs>
<clipPath id="clip0_295_96">
<rect width="44" height="44" fill="white"/>
</clipPath>
</defs>
</svg>
