<svg width="44" height="44" viewBox="0 0 44 44" fill="none" xmlns="http://www.w3.org/2000/svg">
<path d="M22.0002 32.9999C25.0557 32.9999 27.6377 31.9305 29.746 29.7916C31.8543 27.6527 32.9391 25.0555 33.0002 21.9999V10.9999H22.0002C18.9446 11.061 16.3474 12.1458 14.2085 14.2541C12.0696 16.3624 11.0002 18.9444 11.0002 21.9999C11.0002 25.0555 12.0696 27.6527 14.2085 29.7916C16.3474 31.9305 18.9446 32.9999 22.0002 32.9999ZM19.846 29.9291L28.2793 22.4124C28.5543 22.168 28.6307 21.8777 28.5085 21.5416C28.3863 21.2055 28.1418 21.0069 27.7752 20.9458L21.1752 20.3041L25.1168 14.8499C25.2085 14.6971 25.262 14.552 25.2772 14.4145C25.2925 14.277 25.2391 14.1471 25.1168 14.0249C24.9946 13.8721 24.8418 13.8034 24.6585 13.8187C24.4752 13.8339 24.3071 13.9027 24.1543 14.0249L15.7668 21.5416C15.4918 21.786 15.4154 22.0763 15.5377 22.4124C15.6599 22.7485 15.9043 22.9471 16.271 23.0083L22.871 23.6499L18.8835 29.1041C18.7918 29.2569 18.746 29.402 18.746 29.5395C18.746 29.677 18.8071 29.8069 18.9293 29.9291C19.0516 30.0513 19.1967 30.1124 19.3647 30.1124C19.5328 30.1124 19.6932 30.0513 19.846 29.9291ZM22.0002 36.6666C20.2891 36.6666 18.6772 36.3992 17.1647 35.8645C15.6522 35.3298 14.2696 34.5735 13.0168 33.5958L10.496 36.1166C10.3127 36.2999 10.1064 36.4374 9.87725 36.5291C9.64808 36.6208 9.41127 36.6666 9.16683 36.6666C8.64739 36.6666 8.21197 36.4909 7.86058 36.1395C7.50919 35.7881 7.3335 35.3527 7.3335 34.8333C7.3335 34.5888 7.37933 34.352 7.471 34.1228C7.56266 33.8937 7.70016 33.6874 7.8835 33.5041L10.4043 30.9833C9.42655 29.7305 8.6703 28.3478 8.13558 26.8353C7.60086 25.3228 7.3335 23.711 7.3335 21.9999C7.3335 17.9055 8.75433 14.4374 11.596 11.5958C14.4377 8.75409 17.9057 7.33325 22.0002 7.33325H36.6668V21.9999C36.6668 26.0944 35.246 29.5624 32.4043 32.4041C29.5627 35.2458 26.0946 36.6666 22.0002 36.6666Z" fill="white"/>
</svg>
