<svg width="44" height="44" viewBox="0 0 44 44" fill="none" xmlns="http://www.w3.org/2000/svg">
<path d="M7.33366 36.6666C6.32533 36.6666 5.46213 36.3076 4.74408 35.5895C4.02602 34.8714 3.66699 34.0083 3.66699 32.9999V10.9999C3.66699 9.99159 4.02602 9.12839 4.74408 8.41034C5.46213 7.69228 6.32533 7.33325 7.33366 7.33325H36.667C37.6753 7.33325 38.5385 7.69228 39.2566 8.41034C39.9746 9.12839 40.3337 9.99159 40.3337 10.9999V32.9999C40.3337 34.0083 39.9746 34.8714 39.2566 35.5895C38.5385 36.3076 37.6753 36.6666 36.667 36.6666H7.33366ZM7.33366 32.9999H26.5837V26.5833H7.33366V32.9999ZM30.2503 32.9999H36.667V16.4999H30.2503V32.9999ZM7.33366 22.9166H26.5837V16.4999H7.33366V22.9166Z" fill="white"/>
</svg>
