<svg width="44" height="44" viewBox="0 0 44 44" fill="none" xmlns="http://www.w3.org/2000/svg">
<g clip-path="url(#clip0_295_80)">
<path d="M3.6665 40.3334L7.33317 22.0001H36.6665L40.3332 40.3334H3.6665ZM5.49984 7.33341V3.66675H10.9998V7.33341H5.49984ZM8.15817 36.6667H20.1665V33.0001H8.8915L8.15817 36.6667ZM11.229 17.0959L8.6165 14.5292L12.5123 10.6334L15.1248 13.2001L11.229 17.0959ZM9.62484 29.3334H20.1665V25.6667H10.3582L9.62484 29.3334ZM21.9998 12.8334C19.4637 12.8334 17.3019 11.9397 15.5144 10.1522C13.7269 8.36466 12.8332 6.20286 12.8332 3.66675H16.4998C16.4998 5.19453 17.0346 6.49314 18.104 7.56258C19.1734 8.63203 20.4721 9.16675 21.9998 9.16675C23.5276 9.16675 24.8262 8.63203 25.8957 7.56258C26.9651 6.49314 27.4998 5.19453 27.4998 3.66675H31.1665C31.1665 6.20286 30.2728 8.36466 28.4853 10.1522C26.6978 11.9397 24.5359 12.8334 21.9998 12.8334ZM20.1665 20.1667V14.6667H23.8332V20.1667H20.1665ZM23.8332 36.6667H35.8415L35.1082 33.0001H23.8332V36.6667ZM23.8332 29.3334H34.3748L33.6415 25.6667H23.8332V29.3334ZM32.7707 17.0959L28.9207 13.2001L31.4873 10.6334L35.3832 14.4834L32.7707 17.0959ZM32.9998 7.33341V3.66675H38.4998V7.33341H32.9998Z" fill="white"/>
</g>
<defs>
<clipPath id="clip0_295_80">
<rect width="44" height="44" fill="white"/>
</clipPath>
</defs>
</svg>
